<svg xmlns="http://www.w3.org/2000/svg" viewBox="0 0 48 48"  ><defs><style>.cls-2{fill:#919191}.cls-4{fill:#edebf2}</style></defs><g class="Copy_Writing" data-name="Copy Writing"><path style="fill:#7c7d7d" d="M1 1h46v8H1z"/><path class="cls-2" d="M47 1v6H10a6 6 0 0 1-6-6h43Z"/><path style="fill:#dad7e5" d="M1 9h46v30H1z"/><path class="cls-4" d="M47 9v28H32A28 28 0 0 1 4 9h43Z"/><path style="fill:#fc6" d="M36 20h6v22h-6z"/><path d="M42 20v20a4 4 0 0 1-4-4V20Z" style="fill:#ffde76"/><path d="M42 17v3h-6v-3a3 3 0 0 1 .88-2.12 3.06 3.06 0 0 1 1.25-.75A3.1 3.1 0 0 1 39 14a3 3 0 0 1 3 3Z" style="fill:#db5669"/><path d="M42 17v1h-1a3 3 0 0 1-3-3 3.1 3.1 0 0 1 .13-.87A3.1 3.1 0 0 1 39 14a3 3 0 0 1 3 3Z" style="fill:#f26674"/><path style="fill:#f6ccaf" d="m42 42-2.18 3.66-.8 1.34L36 42h6z"/><path style="fill:#ffdec7" d="m42 42-2.18 3.66L37.6 42H42z"/><path style="fill:#6fabe6" d="M6 14h14v8H6z"/><path d="M20 14v6h-5a6 6 0 0 1-6-6h11Z" style="fill:#82bcf4"/><path class="cls-2" d="M32 17h-8a1 1 0 0 1 0-2h8a1 1 0 0 1 0 2Zm0 4h-8a1 1 0 0 1 0-2h8a1 1 0 0 1 0 2Zm0 6H6a1 1 0 0 1 0-2h26a1 1 0 0 1 0 2Zm0 4H6a1 1 0 0 1 0-2h26a1 1 0 0 1 0 2Zm0 4H6a1 1 0 0 1 0-2h26a1 1 0 0 1 0 2Z"/><path class="cls-4" d="M5 6a1 1 0 0 1-.92-.62A.84.84 0 0 1 4 5a1.05 1.05 0 0 1 .29-.71 1 1 0 0 1 .33-.21 1 1 0 0 1 .76 0 .9.9 0 0 1 .54.54A1 1 0 0 1 6 5a1 1 0 0 1-1 1Zm4 0a1 1 0 0 1-.92-.62A.84.84 0 0 1 8 5a1.05 1.05 0 0 1 .29-.71 1 1 0 0 1 .33-.21 1 1 0 0 1 .76 0 .9.9 0 0 1 .54.54A1 1 0 0 1 10 5a1 1 0 0 1-1 1Zm4 0a1 1 0 0 1-.92-.62A.84.84 0 0 1 12 5a1.05 1.05 0 0 1 .29-.71 1 1 0 0 1 .33-.21 1 1 0 0 1 .76 0 .9.9 0 0 1 .54.54A1 1 0 0 1 14 5a1 1 0 0 1-1 1Z"/></g></svg>